# xmcd
#
# Track frame offsets:
#	150
#	16467
#	32596
#	46102
#	64615
#	76608
#	87916
#	104214
#	119547
#	134786
#	155521
#	170691
#	183444
#	200131
#	216793
#	232690
#
# Disc length: 3380 seconds
#
# Revision: 0
# Processed by: cddbd v1.5.2PL0 Copyright (c) Steve Scherf et al.
# Submitted via: EasyCDDAExtractor 11.0.0.1
#
DISCID=db0d3210
DTITLE=Jackson and Junior - Jackson and Junior Ligado em Você
DYEAR=2009
DGENRE=Sertanejo
TTITLE0=Eu To Voltando pra Ela
TTITLE1=Ligado em Você
TTITLE2=Quando o Amor Vai Embora
TTITLE3=Vem Pra Mim
TTITLE4=O Teu Chamego
TTITLE5=Empreitada Perigosa
TTITLE6=Virou Mania
TTITLE7=Onde Andará Quem Eu Amo
TTITLE8=O Número Três
TTITLE9=Catedral
TTITLE10=Vida
TTITLE11=Sorriso Mudo
TTITLE12=Tempo de Festa
TTITLE13=Solidão por Perto
TTITLE14=Bebendo Todas
TTITLE15=Pra Sempre
EXTD=
EXTT0=
EXTT1=
EXTT2=
EXTT3=
EXTT4=
EXTT5=
EXTT6=
EXTT7=
EXTT8=
EXTT9=
EXTT10=
EXTT11=
EXTT12=
EXTT13=
EXTT14=
EXTT15=
PLAYORDER=
